 <svg
  className="logos"
  width="170"
  height="67"
  viewBox="0 0 170 67"
  fill="none"
  xmlns="http://www.w3.org/2000/svg"
>
  <title>Flipped Energy Logo</title>
  <path
    d="M35.8364 1.16472H28.3271V42.0427H35.8364V1.16472ZM46.273 14.2639H38.7637V42.0427H46.273V14.2639ZM37.8595 5.72946C37.8595 8.21405 39.949 10.3028 42.4898 10.3028C45.0869 10.3028 47.1194 8.21405 47.1194 5.72946C47.1194 3.13242 45.0869 1.04291 42.4898 1.04291C39.949 1.04291 37.8595 3.13242 37.8595 5.72946ZM56.7087 52.7705V39.3324C58.0635 41.1963 60.887 42.7205 64.7263 42.7205C72.5744 42.7205 77.8255 36.5097 77.8255 28.0971C77.8255 19.8539 73.139 13.6432 65.009 13.6432C60.8307 13.6432 57.7254 15.5062 56.4831 17.6519V14.2639H49.1995V52.7705H56.7087ZM70.4287 28.1533C70.4287 33.1217 67.3804 36.0014 63.5402 36.0014C59.7009 36.0014 56.5955 33.0655 56.5955 28.1533C56.5955 23.2411 59.7009 20.3614 63.5402 20.3614C67.3804 20.3614 70.4287 23.2411 70.4287 28.1533ZM87.8755 52.7705V39.3324C89.2303 41.1963 92.0537 42.7205 95.8931 42.7205C103.741 42.7205 108.992 36.5097 108.992 28.0971C108.992 19.8539 104.306 13.6432 96.175 13.6432C91.9968 13.6432 88.8914 15.5062 87.6499 17.6519V14.2639H80.3663V52.7705H87.8755ZM101.596 28.1533C101.596 33.1217 98.5464 36.0014 94.707 36.0014C90.8677 36.0014 87.7623 33.0655 87.7623 28.1533C87.7623 23.2411 90.8677 20.3614 94.707 20.3614C98.5464 20.3614 101.596 23.2411 101.596 28.1533ZM118.694 24.9917C118.864 22.4509 121.009 19.515 124.906 19.515C129.196 19.515 131.003 22.2253 131.116 24.9917H118.694ZM131.85 32.2191C130.947 34.7029 129.027 36.4535 125.526 36.4535C121.8 36.4535 118.694 33.7995 118.525 30.1296H138.4C138.4 30.0164 138.512 28.8873 138.512 27.8144C138.512 18.8935 133.374 13.4167 124.792 13.4167C117.678 13.4167 111.129 19.1761 111.129 28.0409C111.129 37.4132 117.848 42.8899 125.47 42.8899C132.302 42.8899 136.705 38.8811 138.117 34.0821L131.85 32.2191ZM169.218 1.16472H161.822V17.0304C161.031 15.5624 158.772 13.5862 153.973 13.5862C146.125 13.5862 140.649 19.9663 140.649 28.0971C140.649 36.5097 146.295 42.7205 154.199 42.7205C157.926 42.7205 160.749 41.0268 161.991 38.8249C161.991 40.1234 162.16 41.4781 162.274 42.0427H169.444C169.331 40.9136 169.218 38.8811 169.218 37.0181V1.16472ZM148.215 28.0971C148.215 23.1287 151.263 20.3052 155.103 20.3052C158.942 20.3052 161.935 23.0717 161.935 28.0409C161.935 33.0655 158.942 36.0014 155.103 36.0014C151.151 36.0014 148.215 33.0655 148.215 28.0971Z"
    fill="#28D2CF"
  />
  <path
    d="M17.4468 42.1094V25.9704H1.92005V18.8H17.5031V8.36348H0V0.966698H25.295V42.1094H17.4468Z"
    fill="#28D2CF"
  />
  <path
    d="M98.7189 53.5786C98.8212 52.2442 99.8995 50.8075 101.773 50.8075C103.825 50.8075 104.8 52.1161 104.852 53.5786H98.7189ZM105.185 56.837C104.774 58.0692 103.85 59.0187 102.055 59.0187C100.207 59.0187 98.7189 57.6585 98.6416 55.7595H107.776C107.802 55.7087 107.854 55.298 107.854 54.81C107.854 50.859 105.596 48.3182 101.747 48.3182C98.5908 48.3182 95.665 50.9355 95.665 54.8873C95.665 59.121 98.6673 61.5845 102.055 61.5845C105.057 61.5845 107.032 59.8135 107.7 57.6327L105.185 56.837ZM112.138 53.9894C112.138 52.3473 113.036 51.0386 114.73 51.0386C116.603 51.0386 117.296 52.27 117.296 53.8098V61.1995H120.273V53.2968C120.273 50.5506 118.81 48.344 115.757 48.344C114.371 48.344 112.882 48.9343 112.062 50.371V48.7031H109.162V61.1995H112.138V53.9894ZM124.429 53.5786C124.532 52.2442 125.609 50.8075 127.482 50.8075C129.535 50.8075 130.51 52.1161 130.562 53.5786H124.429ZM130.895 56.837C130.485 58.0692 129.561 59.0187 127.765 59.0187C125.917 59.0187 124.429 57.6585 124.352 55.7595H133.487C133.513 55.7087 133.564 55.298 133.564 54.81C133.564 50.859 131.306 48.3182 127.456 48.3182C124.3 48.3182 121.375 50.9355 121.375 54.8873C121.375 59.121 124.378 61.5845 127.765 61.5845C130.767 61.5845 132.743 59.8135 133.41 57.6327L130.895 56.837ZM142.698 48.6266C142.57 48.6008 142.262 48.5493 141.903 48.5493C140.261 48.5493 138.875 49.345 138.285 50.7044V48.7031H135.385V61.1995H138.362V55.2465C138.362 52.9118 139.414 51.5774 141.723 51.5774C142.031 51.5774 142.365 51.6031 142.698 51.6539V48.6266ZM143.135 61.8921C143.468 64.4072 145.777 66.46 149.088 66.46C153.783 66.46 155.502 63.3546 155.502 60.0189V48.7031H152.628V50.2945C152.089 49.2677 150.884 48.4728 148.933 48.4728C145.495 48.4728 143.16 51.2182 143.16 54.5539C143.16 58.0692 145.597 60.635 148.933 60.635C150.756 60.635 152.013 59.7886 152.552 58.8133V60.122C152.552 62.662 151.371 63.8684 149.01 63.8684C147.291 63.8684 146.086 62.7136 145.88 61.1738L143.135 61.8921ZM149.421 58.095C147.471 58.095 146.162 56.7347 146.162 54.5539C146.162 52.4238 147.522 51.0386 149.421 51.0386C151.269 51.0386 152.628 52.4238 152.628 54.5539C152.628 56.709 151.32 58.095 149.421 58.095ZM162.046 66.2546L170 48.7031H166.844L163.482 56.6067L159.89 48.7031H156.528L161.866 59.7113L158.864 66.2546H162.046Z"
    fill="white"
  />
</svg>